<?xml version="1.0" encoding="utf-8"?>
<!-- Generator: Adobe Illustrator 19.0.0, SVG Export Plug-In . SVG Version: 6.00 Build 0)  -->
<svg version="1.1" id="arroba" xmlns="http://www.w3.org/2000/svg" xmlns:xlink="http://www.w3.org/1999/xlink" x="0px" y="0px"
	 viewBox="-476 476 50 50" style="enable-background:new -476 476 50 50;" xml:space="preserve">
<style type="text/css">
	.st0{fill:none;stroke:#FFFFFF;stroke-width:2;stroke-linecap:round;stroke-miterlimit:10;}
	.st1{fill:#FFFFFF;}
</style>
<circle class="st0" cx="-451" cy="501" r="24"/>
<g>
	<path class="st1" d="M-444.6,514.6c-2.2,1.2-4.5,1.6-7.2,1.6c-6.7,0-12.3-4.9-12.3-12.7c0-8.4,5.8-15.6,14.8-15.6
		c7.1,0,11.8,5,11.8,11.7c0,6.1-3.4,9.7-7.2,9.7c-1.6,0-3.1-1.1-3-3.6h-0.2c-1.4,2.4-3.3,3.6-5.7,3.6c-2.4,0-4.4-1.9-4.4-5.1
		c0-5,4-9.6,9.6-9.6c1.7,0,3.3,0.4,4.3,0.9l-1.4,7.3c-0.6,3.1-0.1,4.5,1.2,4.5c2.1,0,4.4-2.7,4.4-7.4c0-5.9-3.5-10.1-9.8-10.1
		c-6.6,0-12.2,5.2-12.2,13.5c0,6.8,4.4,11,10.4,11c2.3,0,4.5-0.5,6.1-1.4L-444.6,514.6z M-446.8,497.1c-0.4-0.1-1.1-0.3-2-0.3
		c-3.6,0-6.5,3.4-6.5,7.3c0,1.8,0.9,3.1,2.7,3.1c2.4,0,4.5-3,5-5.5L-446.8,497.1z"/>
</g>
</svg>
