<?xml version="1.0" encoding="utf-8"?>
<!-- Generator: Adobe Illustrator 19.0.0, SVG Export Plug-In . SVG Version: 6.00 Build 0)  -->
<svg version="1.1" id="arroba" xmlns="http://www.w3.org/2000/svg" xmlns:xlink="http://www.w3.org/1999/xlink" x="0px" y="0px"
	 viewBox="-476 476 50 50" style="enable-background:new -476 476 50 50;" xml:space="preserve">
<style type="text/css">
	.st0{fill:#FFFFFF;}
	.st1{fill:none;stroke:#FFFFFF;stroke-width:2;stroke-miterlimit:10;}
</style>
<path class="st0" d="M-461.9,511.4c-0.6,0-1-0.4-1-1v-19c0-0.6,0.4-1,1-1s1,0.4,1,1v19C-460.9,510.9-461.3,511.4-461.9,511.4z"/>
<path class="st0" d="M-457.5,511.4c-0.6,0-1-0.4-1-1v-13.5c0-0.6,0.4-1,1-1s1,0.4,1,1v13.5C-456.5,510.9-456.9,511.4-457.5,511.4z"
	/>
<path class="st0" d="M-453.2,511.4c-0.6,0-1-0.4-1-1v-17c0-0.6,0.4-1,1-1s1,0.4,1,1v17C-452.2,510.9-452.6,511.4-453.2,511.4z"/>
<path class="st0" d="M-448.8,511.4c-0.6,0-1-0.4-1-1v-11.5c0-0.6,0.4-1,1-1s1,0.4,1,1v11.5C-447.8,510.9-448.3,511.4-448.8,511.4z"
	/>
<path class="st0" d="M-444.8,511.4c-0.6,0-1-0.4-1-1v-14c0-0.6,0.4-1,1-1s1,0.4,1,1v14C-443.8,510.9-444.3,511.4-444.8,511.4z"/>
<path class="st0" d="M-440.4,511.4c-0.6,0-1-0.4-1-1v-7.5c0-0.6,0.4-1,1-1s1,0.4,1,1v7.5C-439.4,510.9-439.9,511.4-440.4,511.4z"/>
<path class="st1" d="M-464.4,502.7"/>
<path class="st0" d="M-451,476c-4.6,0-9,1.3-12.7,3.5l0.3-2.8l-2-0.2l-0.6,6.2l6.1,0.8l0.2-2l-2.8-0.3c3.4-2,7.3-3.1,11.5-3.1
	c12.7,0,23,10.3,23,23c0,4.6-1.4,8.9-3.7,12.5l1.4,1.4c2.7-4,4.3-8.8,4.3-14C-426,487.2-437.2,476-451,476z"/>
<path class="st0" d="M-441.9,518.8l-0.2,2l2.4,0.2c-3.3,1.9-7.2,3-11.3,3c-12.7,0-23-10.3-23-23c0-4.6,1.4-8.9,3.7-12.5l-1.4-1.4
	c-2.7,4-4.3,8.8-4.3,14c0,13.8,11.2,25,25,25c4.7,0,9.1-1.3,12.9-3.6l-0.2,3l2,0.2l0.5-6.1L-441.9,518.8z"/>
</svg>
